<svg width="32" height="32" viewBox="0 0 32 32" fill="none" xmlns="http://www.w3.org/2000/svg">
  <!-- Central node -->
  <circle cx="16" cy="16" r="4" fill="#3B82F6" stroke="#1E40AF" stroke-width="1.5"/>
  
  <!-- Branch 1 - Top -->
  <circle cx="16" cy="6" r="2.5" fill="#10B981" stroke="#059669" stroke-width="1"/>
  <line x1="16" y1="12" x2="16" y2="9.5" stroke="#6B7280" stroke-width="1.5" stroke-linecap="round"/>
  
  <!-- Branch 2 - Top Right -->
  <circle cx="24" cy="8" r="2.5" fill="#F59E0B" stroke="#D97706" stroke-width="1"/>
  <line x1="19.5" y1="13.5" x2="22.5" y2="10.5" stroke="#6B7280" stroke-width="1.5" stroke-linecap="round"/>
  
  <!-- Branch 3 - Right -->
  <circle cx="26" cy="16" r="2.5" fill="#EF4444" stroke="#DC2626" stroke-width="1"/>
  <line x1="20" y1="16" x2="23.5" y2="16" stroke="#6B7280" stroke-width="1.5" stroke-linecap="round"/>
  
  <!-- Branch 4 - Bottom Right -->
  <circle cx="24" cy="24" r="2.5" fill="#8B5CF6" stroke="#7C3AED" stroke-width="1"/>
  <line x1="19.5" y1="18.5" x2="22.5" y2="21.5" stroke="#6B7280" stroke-width="1.5" stroke-linecap="round"/>
  
  <!-- Branch 5 - Bottom -->
  <circle cx="16" cy="26" r="2.5" fill="#EC4899" stroke="#DB2777" stroke-width="1"/>
  <line x1="16" y1="20" x2="16" y2="23.5" stroke="#6B7280" stroke-width="1.5" stroke-linecap="round"/>
  
  <!-- Branch 6 - Bottom Left -->
  <circle cx="8" cy="24" r="2.5" fill="#06B6D4" stroke="#0891B2" stroke-width="1"/>
  <line x1="12.5" y1="18.5" x2="9.5" y2="21.5" stroke="#6B7280" stroke-width="1.5" stroke-linecap="round"/>
  
  <!-- Branch 7 - Left -->
  <circle cx="6" cy="16" r="2.5" fill="#84CC16" stroke="#65A30D" stroke-width="1"/>
  <line x1="12" y1="16" x2="8.5" y2="16" stroke="#6B7280" stroke-width="1.5" stroke-linecap="round"/>
  
  <!-- Branch 8 - Top Left -->
  <circle cx="8" cy="8" r="2.5" fill="#F97316" stroke="#EA580C" stroke-width="1"/>
  <line x1="12.5" y1="13.5" x2="9.5" y2="10.5" stroke="#6B7280" stroke-width="1.5" stroke-linecap="round"/>
  
  <!-- Sub-branches for more complexity -->
  <!-- From top node -->
  <circle cx="12" cy="4" r="1.5" fill="#10B981" stroke="#059669" stroke-width="0.5"/>
  <line x1="15.5" y1="5.5" x2="13" y2="5.5" stroke="#6B7280" stroke-width="1" stroke-linecap="round"/>
  
  <circle cx="20" cy="4" r="1.5" fill="#10B981" stroke="#059669" stroke-width="0.5"/>
  <line x1="16.5" y1="5.5" x2="19" y2="5.5" stroke="#6B7280" stroke-width="1" stroke-linecap="round"/>
  
  <!-- From right node -->
  <circle cx="28" cy="12" r="1.5" fill="#EF4444" stroke="#DC2626" stroke-width="0.5"/>
  <line x1="25.5" y1="15" x2="27" y2="13.5" stroke="#6B7280" stroke-width="1" stroke-linecap="round"/>
  
  <circle cx="28" cy="20" r="1.5" fill="#EF4444" stroke="#DC2626" stroke-width="0.5"/>
  <line x1="25.5" y1="17" x2="27" y2="18.5" stroke="#6B7280" stroke-width="1" stroke-linecap="round"/>
</svg>
